<?xml version="1.0" encoding="UTF-8"?>
<svg xmlns="http://www.w3.org/2000/svg"
     viewBox="0 0 1339 356"
     width="1339" height="356"
     role="img" aria-labelledby="title desc"
     shape-rendering="geometricPrecision">
  <title id="title">piburn logo</title>
  <desc id="desc">The lowercase word piburn in curly braces; pi and braces are charcoal, burn is raspberry red.</desc>
  <path aria-label="left brace" fill="#181818" transform="matrix(0.1698113208 0 0 -0.1650537634 4.6400 282.4700)" d="M750 -294V-121C583 -121 539 -54 539 111V380C539 487 501 587 351 636C501 684 539 783 539 890V1161C539 1326 583 1393 750 1393V1566C462 1566 334 1465 334 1171V956C334 810 285 746 145 739H114V533H145C285 525 334 461 334 315V101C334 -194 462 -294 750 -294Z"/>
  <path aria-label="p" fill="#181818" transform="matrix(0.1619718310 0 0 -0.1450000000 211.7200 269.0000)" d="M119 -418H330V159H333C404 38 517 -21 655 -21C930 -21 1113 201 1113 528C1113 854 929 1077 656 1077C519 1077 396 1020 329 904H326V1056H119ZM612 161C432 161 316 306 316 528C316 750 432 896 612 896C782 896 899 767 899 528C899 290 782 161 612 161Z"/>
  <path aria-label="i" fill="#181818" transform="matrix(0.1760299625 0 0 -0.1450000000 402.9800 269.0000)" d="M119 0H330V1056H119ZM224 1238C299 1238 358 1295 358 1367C358 1440 299 1497 224 1497C149 1497 91 1440 91 1367C91 1295 149 1238 224 1238Z"/>
  <path aria-label="b" fill="#F93348" transform="matrix(0.1619718310 0 0 -0.1450000000 481.7200 269.0000)" d="M655 -21C930 -21 1113 201 1113 528C1113 854 929 1077 656 1077C519 1077 400 1020 332 903H330V1490H119V0H326V161H328C399 38 517 -21 655 -21ZM612 161C432 161 316 306 316 528C316 750 432 896 612 896C782 896 899 767 899 528C899 290 782 161 612 161Z"/>
  <path aria-label="u" fill="#F93348" transform="matrix(0.1596916299 0 0 -0.1450000000 670.9900 269.0000)" d="M501 -21C641 -21 748 39 820 159V0H1027V1056H816V448C816 252 705 168 562 168C415 168 330 255 330 424V1056H119V398C119 122 284 -21 501 -21Z"/>
  <path aria-label="r" fill="#F93348" transform="matrix(0.1802973978 0 0 -0.1450000000 849.5400 269.0000)" d="M119 0H330V624C330 796 427 877 546 877C595 877 641 870 657 867V1064C640 1066 612 1069 580 1069C446 1069 364 1000 325 885H321V1056H119Z"/>
  <path aria-label="n" fill="#F93348" transform="matrix(0.1596916299 0 0 -0.1450000000 971.9900 269.0000)" d="M330 608C330 804 441 888 585 888C731 888 816 801 816 632V0H1027V658C1027 934 862 1077 645 1077C506 1077 398 1017 326 897V1056H119V0H330Z"/>
  <path aria-label="right brace" fill="#181818" transform="matrix(0.1685039370 0 0 -0.1650537634 1195.1900 282.4700)" d="M76 -294C363 -294 491 -194 491 101V315C491 471 548 533 711 534V738H706C546 739 491 801 491 956V1171C491 1465 363 1566 76 1566V1393C242 1393 287 1326 287 1161V890C287 783 324 684 474 636C324 587 287 487 287 380V111C287 -54 242 -121 76 -121Z"/>
</svg>
